<?xml version="1.0" encoding="UTF-8" standalone="no"?>
<svg
   width="16"
   height="16"
   fill="currentColor"
   class="bi bi-clock"
   viewBox="0 0 16 16"
   version="1.1"
   id="svg6"
   sodipodi:docname="clock.svg"
   inkscape:version="1.2.2 (b0a8486541, 2022-12-01)"
   xmlns:inkscape="http://www.inkscape.org/namespaces/inkscape"
   xmlns:sodipodi="http://sodipodi.sourceforge.net/DTD/sodipodi-0.dtd"
   xmlns="http://www.w3.org/2000/svg"
   xmlns:svg="http://www.w3.org/2000/svg">
  <defs
     id="defs10" />
  <sodipodi:namedview
     id="namedview8"
     pagecolor="#ffffff"
     bordercolor="#666666"
     borderopacity="1.0"
     inkscape:showpageshadow="2"
     inkscape:pageopacity="0.0"
     inkscape:pagecheckerboard="0"
     inkscape:deskcolor="#d1d1d1"
     showgrid="true"
     inkscape:zoom="45.254834"
     inkscape:cx="3.5686795"
     inkscape:cy="9.4575532"
     inkscape:window-width="2560"
     inkscape:window-height="1384"
     inkscape:window-x="0"
     inkscape:window-y="0"
     inkscape:window-maximized="1"
     inkscape:current-layer="svg6">
    <inkscape:grid
       type="xygrid"
       id="grid1907" />
  </sodipodi:namedview>
  <path
     d="m 8.4851702,2.7531713 a 0.5,0.5 0 0 0 -1,0 v 5.5 a 0.5,0.5 0 0 0 0.252,0.434 L 11.23717,10.687171 a 0.5,0.5 0 0 0 0.496,-0.8679997 l -3.2479998,-1.856 z"
     id="path2" />
  <g
     id="g1724"
     transform="matrix(0.89507861,0,0,0.89507861,1.2293762,0.017223)"
     style="stroke-width:0.77646811;stroke-dasharray:none;fill-rule:evenodd;stroke:#7d96ff;stroke-opacity:1;fill:#000000;fill-opacity:1">
    <path
       style="opacity:1;fill:#000000;stroke:#7d96ff;stroke-width:0.77646811;stroke-dasharray:none;paint-order:stroke markers fill;fill-rule:evenodd;stroke-opacity:1;fill-opacity:1"
       id="path1303"
       sodipodi:type="arc"
       sodipodi:cx="7.5476475"
       sodipodi:cy="0.99183679"
       sodipodi:rx="0.21356854"
       sodipodi:ry="0.21356854"
       sodipodi:start="0"
       sodipodi:end="6.2747958"
       sodipodi:open="true"
       sodipodi:arc-type="arc"
       d="M 7.761216,0.99183679 A 0.21356854,0.21356854 0 0 1 7.5480954,1.2054049 0.21356854,0.21356854 0 0 1 7.3340808,0.99273265 0.21356854,0.21356854 0 0 1 7.5463037,0.77827248 0.21356854,0.21356854 0 0 1 7.7612085,0.99004507"
       inkscape:transform-center-x="0.018513653"
       inkscape:transform-center-y="-7.9809778" />
    <path
       style="opacity:1;fill:#000000;stroke:#7d96ff;stroke-width:0.77646811;stroke-dasharray:none;paint-order:stroke markers fill;fill-rule:evenodd;stroke-opacity:1;fill-opacity:1"
       id="path1628"
       sodipodi:type="arc"
       sodipodi:cx="4.9675016"
       sodipodi:cy="2.6443622"
       sodipodi:rx="0.21356854"
       sodipodi:ry="0.21356854"
       sodipodi:start="0"
       sodipodi:end="6.2747958"
       sodipodi:open="true"
       sodipodi:arc-type="arc"
       d="M 5.1810702,2.6443622 A 0.21356854,0.21356854 0 0 1 4.9679496,2.8579303 0.21356854,0.21356854 0 0 1 4.753935,2.6452581 0.21356854,0.21356854 0 0 1 4.9661578,2.4307979 0.21356854,0.21356854 0 0 1 5.1810627,2.6425705"
       inkscape:transform-center-x="2.0835117"
       inkscape:transform-center-y="-7.7042409"
       transform="rotate(-15)" />
    <path
       style="opacity:1;fill:#000000;stroke:#7d96ff;stroke-width:0.77646811;stroke-dasharray:none;paint-order:stroke markers fill;fill-rule:evenodd;stroke-opacity:1;fill-opacity:1"
       id="path1642"
       sodipodi:type="arc"
       sodipodi:cx="2.0475669"
       sodipodi:cy="3.5727882"
       sodipodi:rx="0.21356854"
       sodipodi:ry="0.21356854"
       sodipodi:start="0"
       sodipodi:end="6.2747958"
       sodipodi:open="true"
       sodipodi:arc-type="arc"
       d="M 2.2611354,3.5727882 A 0.21356854,0.21356854 0 0 1 2.0480148,3.7863563 0.21356854,0.21356854 0 0 1 1.8340002,3.5736841 0.21356854,0.21356854 0 0 1 2.0462231,3.3592239 0.21356854,0.21356854 0 0 1 2.2611279,3.5709965"
       inkscape:transform-center-x="4.0065221"
       inkscape:transform-center-y="-6.9024727"
       transform="rotate(-30)" />
    <path
       style="opacity:1;fill:#000000;stroke:#7d96ff;stroke-width:0.77646811;stroke-dasharray:none;paint-order:stroke markers fill;fill-rule:evenodd;stroke-opacity:1;fill-opacity:1"
       id="path1644"
       sodipodi:type="arc"
       sodipodi:cx="-1.0131677"
       sodipodi:cy="3.7138443"
       sodipodi:rx="0.21356854"
       sodipodi:ry="0.21356854"
       sodipodi:start="0"
       sodipodi:end="6.2747958"
       sodipodi:open="true"
       sodipodi:arc-type="arc"
       d="M -0.7995992,3.7138443 A 0.21356854,0.21356854 0 0 1 -1.0127198,3.9274124 0.21356854,0.21356854 0 0 1 -1.2267344,3.7147402 0.21356854,0.21356854 0 0 1 -1.0145115,3.50028 0.21356854,0.21356854 0 0 1 -0.79960672,3.7120526"
       inkscape:transform-center-x="5.6564945"
       inkscape:transform-center-y="-5.6303124"
       transform="rotate(-45)" />
    <path
       style="opacity:1;fill:#000000;stroke:#7d96ff;stroke-width:0.77646811;stroke-dasharray:none;paint-order:stroke markers fill;fill-rule:evenodd;stroke-opacity:1;fill-opacity:1"
       id="path1646"
       sodipodi:type="arc"
       sodipodi:cx="-4.0061183"
       sodipodi:cy="3.0579174"
       sodipodi:rx="0.21356854"
       sodipodi:ry="0.21356854"
       sodipodi:start="0"
       sodipodi:end="6.2747958"
       sodipodi:open="true"
       sodipodi:arc-type="arc"
       d="M -3.7925498,3.0579174 A 0.21356854,0.21356854 0 0 1 -4.0056704,3.2714854 0.21356854,0.21356854 0 0 1 -4.219685,3.0588132 0.21356854,0.21356854 0 0 1 -4.0074621,2.844353 0.21356854,0.21356854 0 0 1 -3.7925573,3.0561256"
       inkscape:transform-center-x="6.9209862"
       inkscape:transform-center-y="-3.9744558"
       transform="rotate(-60)" />
    <path
       style="opacity:1;fill:#000000;stroke:#7d96ff;stroke-width:0.77646811;stroke-dasharray:none;paint-order:stroke markers fill;fill-rule:evenodd;stroke-opacity:1;fill-opacity:1"
       id="path1648"
       sodipodi:type="arc"
       sodipodi:cx="-6.7273202"
       sodipodi:cy="1.649708"
       sodipodi:rx="0.21356854"
       sodipodi:ry="0.21356854"
       sodipodi:start="0"
       sodipodi:end="6.2747958"
       sodipodi:open="true"
       sodipodi:arc-type="arc"
       d="M -6.5137517,1.649708 A 0.21356854,0.21356854 0 0 1 -6.7268723,1.8632761 0.21356854,0.21356854 0 0 1 -6.9408869,1.6506039 0.21356854,0.21356854 0 0 1 -6.728664,1.4361437 0.21356854,0.21356854 0 0 1 -6.5137592,1.6479163"
       inkscape:transform-center-x="7.7138242"
       inkscape:transform-center-y="-2.0477465"
       transform="rotate(-75)" />
    <path
       style="opacity:1;fill:#000000;stroke:#7d96ff;stroke-width:0.77646811;stroke-dasharray:none;paint-order:stroke markers fill;fill-rule:evenodd;stroke-opacity:1;fill-opacity:1"
       id="path1650"
       sodipodi:type="arc"
       sodipodi:cx="-8.9913282"
       sodipodi:cy="-0.41481659"
       sodipodi:rx="0.21356854"
       sodipodi:ry="0.21356854"
       sodipodi:start="0"
       sodipodi:end="6.2747958"
       sodipodi:open="true"
       sodipodi:arc-type="arc"
       d="m -8.7777597,-0.41481659 a 0.21356854,0.21356854 0 0 1 -0.2131206,0.21356807 0.21356854,0.21356854 0 0 1 -0.2140146,-0.2126722 0.21356854,0.21356854 0 0 1 0.2122229,-0.21446018 0.21356854,0.21356854 0 0 1 0.2149048,0.2117726"
       inkscape:transform-center-x="7.9809778"
       inkscape:transform-center-y="0.018513564"
       transform="rotate(-90)" />
    <path
       style="opacity:1;fill:#000000;stroke:#7d96ff;stroke-width:0.77646811;stroke-dasharray:none;paint-order:stroke markers fill;fill-rule:evenodd;stroke-opacity:1;fill-opacity:1"
       id="path1652"
       sodipodi:type="arc"
       sodipodi:cx="-10.643853"
       sodipodi:cy="-2.9949627"
       sodipodi:rx="0.21356854"
       sodipodi:ry="0.21356854"
       sodipodi:start="0"
       sodipodi:end="6.2747958"
       sodipodi:open="true"
       sodipodi:arc-type="arc"
       d="m -10.430285,-2.9949627 a 0.21356854,0.21356854 0 0 1 -0.21312,0.2135681 0.21356854,0.21356854 0 0 1 -0.214015,-0.2126722 0.21356854,0.21356854 0 0 1 0.212223,-0.2144602 0.21356854,0.21356854 0 0 1 0.214905,0.2117726"
       inkscape:transform-center-x="7.7042411"
       inkscape:transform-center-y="2.0835114"
       transform="rotate(-105)" />
    <path
       style="opacity:1;fill:#000000;stroke:#7d96ff;stroke-width:0.77646811;stroke-dasharray:none;paint-order:stroke markers fill;fill-rule:evenodd;stroke-opacity:1;fill-opacity:1"
       id="path1668"
       sodipodi:type="arc"
       sodipodi:cx="-11.572279"
       sodipodi:cy="-5.9148974"
       sodipodi:rx="0.21356854"
       sodipodi:ry="0.21356854"
       sodipodi:start="0"
       sodipodi:end="6.2747958"
       sodipodi:open="true"
       sodipodi:arc-type="arc"
       d="m -11.35871,-5.9148974 a 0.21356854,0.21356854 0 0 1 -0.213121,0.213568 0.21356854,0.21356854 0 0 1 -0.214015,-0.2126722 0.21356854,0.21356854 0 0 1 0.212223,-0.2144602 0.21356854,0.21356854 0 0 1 0.214905,0.2117726"
       inkscape:transform-center-x="6.9024732"
       inkscape:transform-center-y="4.0065216"
       transform="rotate(-120)" />
    <path
       style="opacity:1;fill:#000000;stroke:#7d96ff;stroke-width:0.77646811;stroke-dasharray:none;paint-order:stroke markers fill;fill-rule:evenodd;stroke-opacity:1;fill-opacity:1"
       id="path1670"
       sodipodi:type="arc"
       sodipodi:cx="-11.713335"
       sodipodi:cy="-8.9756317"
       sodipodi:rx="0.21356854"
       sodipodi:ry="0.21356854"
       sodipodi:start="0"
       sodipodi:end="6.2747958"
       sodipodi:open="true"
       sodipodi:arc-type="arc"
       d="m -11.499766,-8.9756317 a 0.21356854,0.21356854 0 0 1 -0.213121,0.2135681 0.21356854,0.21356854 0 0 1 -0.214015,-0.2126722 0.21356854,0.21356854 0 0 1 0.212223,-0.2144602 0.21356854,0.21356854 0 0 1 0.214905,0.2117726"
       inkscape:transform-center-x="5.6303127"
       inkscape:transform-center-y="5.656494"
       transform="rotate(-135)" />
    <path
       style="opacity:1;fill:#000000;stroke:#7d96ff;stroke-width:0.77646811;stroke-dasharray:none;paint-order:stroke markers fill;fill-rule:evenodd;stroke-opacity:1;fill-opacity:1"
       id="path1672"
       sodipodi:type="arc"
       sodipodi:cx="-11.057408"
       sodipodi:cy="-11.968582"
       sodipodi:rx="0.21356854"
       sodipodi:ry="0.21356854"
       sodipodi:start="0"
       sodipodi:end="6.2747958"
       sodipodi:open="true"
       sodipodi:arc-type="arc"
       d="m -10.84384,-11.968582 a 0.21356854,0.21356854 0 0 1 -0.21312,0.213568 0.21356854,0.21356854 0 0 1 -0.214015,-0.212672 0.21356854,0.21356854 0 0 1 0.212223,-0.21446 0.21356854,0.21356854 0 0 1 0.214905,0.211772"
       inkscape:transform-center-x="3.9744558"
       inkscape:transform-center-y="6.9209857"
       transform="rotate(-150)" />
    <path
       style="opacity:1;fill:#000000;stroke:#7d96ff;stroke-width:0.77646811;stroke-dasharray:none;paint-order:stroke markers fill;fill-rule:evenodd;stroke-opacity:1;fill-opacity:1"
       id="path1674"
       sodipodi:type="arc"
       sodipodi:cx="-9.6491995"
       sodipodi:cy="-14.689784"
       sodipodi:rx="0.21356854"
       sodipodi:ry="0.21356854"
       sodipodi:start="0"
       sodipodi:end="6.2747958"
       sodipodi:open="true"
       sodipodi:arc-type="arc"
       d="m -9.4356309,-14.689784 a 0.21356854,0.21356854 0 0 1 -0.2131207,0.213568 0.21356854,0.21356854 0 0 1 -0.2140145,-0.212672 0.21356854,0.21356854 0 0 1 0.2122228,-0.21446 0.21356854,0.21356854 0 0 1 0.2149048,0.211772"
       inkscape:transform-center-x="2.0477461"
       inkscape:transform-center-y="7.7138237"
       transform="rotate(-165)" />
    <path
       style="opacity:1;fill:#000000;stroke:#7d96ff;stroke-width:0.77646811;stroke-dasharray:none;paint-order:stroke markers fill;fill-rule:evenodd;stroke-opacity:1;fill-opacity:1"
       id="path1676"
       sodipodi:type="arc"
       sodipodi:cx="-7.5846748"
       sodipodi:cy="-16.953793"
       sodipodi:rx="0.21356854"
       sodipodi:ry="0.21356854"
       sodipodi:start="0"
       sodipodi:end="6.2747958"
       sodipodi:open="true"
       sodipodi:arc-type="arc"
       d="m -7.3711063,-16.953793 a 0.21356854,0.21356854 0 0 1 -0.2131206,0.213568 0.21356854,0.21356854 0 0 1 -0.2140146,-0.212672 0.21356854,0.21356854 0 0 1 0.2122229,-0.21446 0.21356854,0.21356854 0 0 1 0.2149048,0.211773"
       inkscape:transform-center-x="-0.018513629"
       inkscape:transform-center-y="7.9809779"
       transform="scale(-1)" />
    <path
       style="opacity:1;fill:#000000;stroke:#7d96ff;stroke-width:0.77646811;stroke-dasharray:none;paint-order:stroke markers fill;fill-rule:evenodd;stroke-opacity:1;fill-opacity:1"
       id="path1678"
       sodipodi:type="arc"
       sodipodi:cx="-5.004529"
       sodipodi:cy="-18.606318"
       sodipodi:rx="0.21356854"
       sodipodi:ry="0.21356854"
       sodipodi:start="0"
       sodipodi:end="6.2747958"
       sodipodi:open="true"
       sodipodi:arc-type="arc"
       d="m -4.7909605,-18.606318 a 0.21356854,0.21356854 0 0 1 -0.2131206,0.213569 0.21356854,0.21356854 0 0 1 -0.2140146,-0.212673 0.21356854,0.21356854 0 0 1 0.2122229,-0.21446 0.21356854,0.21356854 0 0 1 0.2149048,0.211773"
       inkscape:transform-center-x="-2.0835119"
       inkscape:transform-center-y="7.7042405"
       transform="rotate(165)" />
    <path
       style="opacity:1;fill:#000000;stroke:#7d96ff;stroke-width:0.77646811;stroke-dasharray:none;paint-order:stroke markers fill;fill-rule:evenodd;stroke-opacity:1;fill-opacity:1"
       id="path1680"
       sodipodi:type="arc"
       sodipodi:cx="-2.0845942"
       sodipodi:cy="-19.534744"
       sodipodi:rx="0.21356854"
       sodipodi:ry="0.21356854"
       sodipodi:start="0"
       sodipodi:end="6.2747958"
       sodipodi:open="true"
       sodipodi:arc-type="arc"
       d="m -1.8710257,-19.534744 a 0.21356854,0.21356854 0 0 1 -0.2131206,0.213568 0.21356854,0.21356854 0 0 1 -0.2140146,-0.212672 0.21356854,0.21356854 0 0 1 0.2122229,-0.214461 0.21356854,0.21356854 0 0 1 0.2149048,0.211773"
       inkscape:transform-center-x="-4.0065225"
       inkscape:transform-center-y="6.902473"
       transform="rotate(150)" />
    <path
       style="opacity:1;fill:#000000;stroke:#7d96ff;stroke-width:0.77646811;stroke-dasharray:none;paint-order:stroke markers fill;fill-rule:evenodd;stroke-opacity:1;fill-opacity:1"
       id="path1682"
       sodipodi:type="arc"
       sodipodi:cx="0.97614044"
       sodipodi:cy="-19.6758"
       sodipodi:rx="0.21356854"
       sodipodi:ry="0.21356854"
       sodipodi:start="0"
       sodipodi:end="6.2747958"
       sodipodi:open="true"
       sodipodi:arc-type="arc"
       d="m 1.189709,-19.6758 a 0.21356854,0.21356854 0 0 1 -0.21312063,0.213568 0.21356854,0.21356854 0 0 1 -0.21401459,-0.212672 0.21356854,0.21356854 0 0 1 0.21222287,-0.214461 0.21356854,0.21356854 0 0 1 0.21490485,0.211773"
       inkscape:transform-center-x="-5.6564951"
       inkscape:transform-center-y="5.6303127"
       transform="rotate(135)" />
    <path
       style="opacity:1;fill:#000000;stroke:#7d96ff;stroke-width:0.77646811;stroke-dasharray:none;paint-order:stroke markers fill;fill-rule:evenodd;stroke-opacity:1;fill-opacity:1"
       id="path1684"
       sodipodi:type="arc"
       sodipodi:cx="3.9690912"
       sodipodi:cy="-19.019873"
       sodipodi:rx="0.21356854"
       sodipodi:ry="0.21356854"
       sodipodi:start="0"
       sodipodi:end="6.2747958"
       sodipodi:open="true"
       sodipodi:arc-type="arc"
       d="m 4.1826597,-19.019873 a 0.21356854,0.21356854 0 0 1 -0.2131206,0.213568 0.21356854,0.21356854 0 0 1 -0.2140146,-0.212672 0.21356854,0.21356854 0 0 1 0.2122229,-0.21446 0.21356854,0.21356854 0 0 1 0.2149048,0.211773"
       inkscape:transform-center-x="-6.9209861"
       inkscape:transform-center-y="3.9744555"
       transform="rotate(120)" />
    <path
       style="opacity:1;fill:#000000;stroke:#7d96ff;stroke-width:0.77646811;stroke-dasharray:none;paint-order:stroke markers fill;fill-rule:evenodd;stroke-opacity:1;fill-opacity:1"
       id="path1686"
       sodipodi:type="arc"
       sodipodi:cx="6.6902933"
       sodipodi:cy="-17.611664"
       sodipodi:rx="0.21356854"
       sodipodi:ry="0.21356854"
       sodipodi:start="0"
       sodipodi:end="6.2747958"
       sodipodi:open="true"
       sodipodi:arc-type="arc"
       d="m 6.9038619,-17.611664 a 0.21356854,0.21356854 0 0 1 -0.2131207,0.213568 0.21356854,0.21356854 0 0 1 -0.2140145,-0.212672 0.21356854,0.21356854 0 0 1 0.2122228,-0.21446 0.21356854,0.21356854 0 0 1 0.2149048,0.211772"
       inkscape:transform-center-x="-7.7138244"
       inkscape:transform-center-y="2.0477465"
       transform="rotate(105)" />
    <path
       style="opacity:1;fill:#000000;stroke:#7d96ff;stroke-width:0.77646811;stroke-dasharray:none;paint-order:stroke markers fill;fill-rule:evenodd;stroke-opacity:1;fill-opacity:1"
       id="path1688"
       sodipodi:type="arc"
       sodipodi:cx="8.9543009"
       sodipodi:cy="-15.547139"
       sodipodi:rx="0.21356854"
       sodipodi:ry="0.21356854"
       sodipodi:start="0"
       sodipodi:end="6.2747958"
       sodipodi:open="true"
       sodipodi:arc-type="arc"
       d="m 9.1678694,-15.547139 a 0.21356854,0.21356854 0 0 1 -0.2131206,0.213568 0.21356854,0.21356854 0 0 1 -0.2140146,-0.212672 0.21356854,0.21356854 0 0 1 0.2122229,-0.21446 0.21356854,0.21356854 0 0 1 0.2149048,0.211772"
       inkscape:transform-center-x="-7.980978"
       inkscape:transform-center-y="-0.018513727"
       transform="rotate(90)" />
    <path
       style="opacity:1;fill:#000000;stroke:#7d96ff;stroke-width:0.77646811;stroke-dasharray:none;paint-order:stroke markers fill;fill-rule:evenodd;stroke-opacity:1;fill-opacity:1"
       id="path1690"
       sodipodi:type="arc"
       sodipodi:cx="10.606826"
       sodipodi:cy="-12.966993"
       sodipodi:rx="0.21356854"
       sodipodi:ry="0.21356854"
       sodipodi:start="0"
       sodipodi:end="6.2747958"
       sodipodi:open="true"
       sodipodi:arc-type="arc"
       d="m 10.820394,-12.966993 a 0.21356854,0.21356854 0 0 1 -0.21312,0.213568 0.21356854,0.21356854 0 0 1 -0.214015,-0.212672 0.21356854,0.21356854 0 0 1 0.212223,-0.214461 0.21356854,0.21356854 0 0 1 0.214905,0.211773"
       inkscape:transform-center-x="-7.7042411"
       inkscape:transform-center-y="-2.0835124"
       transform="rotate(75)" />
    <path
       style="opacity:1;fill:#000000;stroke:#7d96ff;stroke-width:0.77646811;stroke-dasharray:none;paint-order:stroke markers fill;fill-rule:evenodd;stroke-opacity:1;fill-opacity:1"
       id="path1692"
       sodipodi:type="arc"
       sodipodi:cx="11.535252"
       sodipodi:cy="-10.047059"
       sodipodi:rx="0.21356854"
       sodipodi:ry="0.21356854"
       sodipodi:start="0"
       sodipodi:end="6.2747958"
       sodipodi:open="true"
       sodipodi:arc-type="arc"
       d="m 11.74882,-10.047059 a 0.21356854,0.21356854 0 0 1 -0.21312,0.213568 0.21356854,0.21356854 0 0 1 -0.214015,-0.212672 0.21356854,0.21356854 0 0 1 0.212223,-0.21446 0.21356854,0.21356854 0 0 1 0.214905,0.211772"
       inkscape:transform-center-x="-6.902473"
       inkscape:transform-center-y="-4.0065232"
       transform="rotate(60)" />
    <path
       style="opacity:1;fill:#000000;stroke:#7d96ff;stroke-width:0.77646811;stroke-dasharray:none;paint-order:stroke markers fill;fill-rule:evenodd;stroke-opacity:1;fill-opacity:1"
       id="path1694"
       sodipodi:type="arc"
       sodipodi:cx="11.676308"
       sodipodi:cy="-6.9863243"
       sodipodi:rx="0.21356854"
       sodipodi:ry="0.21356854"
       sodipodi:start="0"
       sodipodi:end="6.2747958"
       sodipodi:open="true"
       sodipodi:arc-type="arc"
       d="m 11.889876,-6.9863243 a 0.21356854,0.21356854 0 0 1 -0.21312,0.2135681 0.21356854,0.21356854 0 0 1 -0.214015,-0.2126722 0.21356854,0.21356854 0 0 1 0.212223,-0.2144602 0.21356854,0.21356854 0 0 1 0.214905,0.2117726"
       inkscape:transform-center-x="-5.6303124"
       inkscape:transform-center-y="-5.6564956"
       transform="rotate(45)" />
    <path
       style="opacity:1;fill:#000000;stroke:#7d96ff;stroke-width:0.77646811;stroke-dasharray:none;paint-order:stroke markers fill;fill-rule:evenodd;stroke-opacity:1;fill-opacity:1"
       id="path1696"
       sodipodi:type="arc"
       sodipodi:cx="11.020381"
       sodipodi:cy="-3.9933736"
       sodipodi:rx="0.21356854"
       sodipodi:ry="0.21356854"
       sodipodi:start="0"
       sodipodi:end="6.2747958"
       sodipodi:open="true"
       sodipodi:arc-type="arc"
       d="m 11.23395,-3.9933736 a 0.21356854,0.21356854 0 0 1 -0.213121,0.213568 0.21356854,0.21356854 0 0 1 -0.214015,-0.2126722 0.21356854,0.21356854 0 0 1 0.212223,-0.2144601 0.21356854,0.21356854 0 0 1 0.214905,0.2117726"
       inkscape:transform-center-x="-3.9744555"
       inkscape:transform-center-y="-6.9209872"
       transform="rotate(30)" />
    <path
       style="opacity:1;fill:#000000;stroke:#7d96ff;stroke-width:0.77646811;stroke-dasharray:none;paint-order:stroke markers fill;fill-rule:evenodd;stroke-opacity:1;fill-opacity:1"
       id="path1698"
       sodipodi:type="arc"
       sodipodi:cx="9.6121721"
       sodipodi:cy="-1.2721716"
       sodipodi:rx="0.21356854"
       sodipodi:ry="0.21356854"
       sodipodi:start="0"
       sodipodi:end="6.2747958"
       sodipodi:open="true"
       sodipodi:arc-type="arc"
       d="M 9.8257407,-1.2721716 A 0.21356854,0.21356854 0 0 1 9.6126201,-1.0586035 0.21356854,0.21356854 0 0 1 9.3986055,-1.2712758 0.21356854,0.21356854 0 0 1 9.6108283,-1.4857359 0.21356854,0.21356854 0 0 1 9.8257331,-1.2739633"
       inkscape:transform-center-x="-2.0477463"
       inkscape:transform-center-y="-7.7138249"
       transform="rotate(15)" />
  </g>
</svg>
