<?xml version="1.0" encoding="UTF-8" standalone="no"?>
<!-- Uploaded to: SVG Repo, www.svgrepo.com, Generator: SVG Repo Mixer Tools -->

<svg
   fill="#000000"
   height="800px"
   width="800px"
   version="1.1"
   id="Layer_1"
   viewBox="0 0 330 330"
   xml:space="preserve"
   sodipodi:docname="lock-tick.svg"
   inkscape:version="1.1.2 (0a00cf5339, 2022-02-04)"
   xmlns:inkscape="http://www.inkscape.org/namespaces/inkscape"
   xmlns:sodipodi="http://sodipodi.sourceforge.net/DTD/sodipodi-0.dtd"
   xmlns="http://www.w3.org/2000/svg"
   xmlns:svg="http://www.w3.org/2000/svg"><defs
   id="defs297" /><sodipodi:namedview
   id="namedview295"
   pagecolor="#ffffff"
   bordercolor="#666666"
   borderopacity="1.0"
   inkscape:pageshadow="2"
   inkscape:pageopacity="0.0"
   inkscape:pagecheckerboard="0"
   showgrid="false"
   inkscape:zoom="1.08875"
   inkscape:cx="400"
   inkscape:cy="400.45924"
   inkscape:window-width="2560"
   inkscape:window-height="1382"
   inkscape:window-x="0"
   inkscape:window-y="0"
   inkscape:window-maximized="1"
   inkscape:current-layer="Layer_1" />
<g
   id="XMLID_504_"
   style="fill:#00ff00">
	<path
   id="XMLID_505_"
   d="M65,330h200c8.284,0,15-6.716,15-15V145c0-8.284-6.716-15-15-15h-15V85c0-46.869-38.131-85-85-85   S80,38.131,80,85v45H65c-8.284,0-15,6.716-15,15v170C50,323.284,56.716,330,65,330z M207.481,219.356l-42.5,42.5   c-2.929,2.929-6.768,4.394-10.606,4.394s-7.678-1.465-10.606-4.394l-21.25-21.25c-5.858-5.858-5.858-15.354,0-21.213   c5.857-5.858,15.355-5.858,21.213,0l10.644,10.643l31.894-31.893c5.857-5.858,15.355-5.858,21.213,0   C213.34,204.002,213.34,213.498,207.481,219.356z M110,85c0-30.327,24.673-55,55-55s55,24.673,55,55v45H110V85z"
   style="fill:#00ff00" />
</g>
</svg>
