<?xml version="1.0" encoding="UTF-8" standalone="no"?>
<svg
   width="15"
   height="15"
   fill="currentColor"
   class="bi bi-floppy"
   viewBox="1 1 14 14"
   version="1.1"
   id="svg40"
   sodipodi:docname="saveas.svg"
   xml:space="preserve"
   inkscape:version="1.2.2 (b0a8486541, 2022-12-01)"
   xmlns:inkscape="http://www.inkscape.org/namespaces/inkscape"
   xmlns:sodipodi="http://sodipodi.sourceforge.net/DTD/sodipodi-0.dtd"
   xmlns="http://www.w3.org/2000/svg"
   xmlns:svg="http://www.w3.org/2000/svg"><defs
     id="defs44" /><sodipodi:namedview
     id="namedview42"
     pagecolor="#ffffff"
     bordercolor="#666666"
     borderopacity="1.0"
     inkscape:showpageshadow="2"
     inkscape:pageopacity="0.0"
     inkscape:pagecheckerboard="0"
     inkscape:deskcolor="#d1d1d1"
     showgrid="false"
     inkscape:zoom="1.4142136"
     inkscape:cx="-171.11984"
     inkscape:cy="-49.143921"
     inkscape:window-width="2560"
     inkscape:window-height="1385"
     inkscape:window-x="0"
     inkscape:window-y="0"
     inkscape:window-maximized="1"
     inkscape:current-layer="svg40" /><path
     d="m 10.625,2.75 h -1.75 v 2.625 h 1.75 z"
     id="path36"
     style="stroke-width:0.875" /><path
     d="m 2.3125,1 h 10.13775 a 1.3125,1.3125 0 0 1 0.9275,0.385 l 1.238125,1.23725 A 1.3125,1.3125 0 0 1 15,3.54975 V 13.6875 A 1.3125,1.3125 0 0 1 13.6875,15 H 2.3125 A 1.3125,1.3125 0 0 1 1,13.6875 V 2.3125 A 1.3125,1.3125 0 0 1 2.3125,1 M 1.875,2.3125 v 11.375 A 0.4375,0.4375 0 0 0 2.3125,14.125 H 2.75 V 10.1875 A 1.3125,1.3125 0 0 1 4.0625,8.875 h 7.875 a 1.3125,1.3125 0 0 1 1.3125,1.3125 v 3.9375 h 0.4375 A 0.4375,0.4375 0 0 0 14.125,13.6875 V 3.54975 A 0.4375,0.4375 0 0 0 13.99725,3.240875 L 12.759125,2.00275 A 0.4375,0.4375 0 0 0 12.45025,1.875 H 12.375 V 5.8125 A 1.3125,1.3125 0 0 1 11.0625,7.125 H 4.9375 A 1.3125,1.3125 0 0 1 3.625,5.8125 V 1.875 H 2.3125 A 0.4375,0.4375 0 0 0 1.875,2.3125 m 2.625,3.5 A 0.4375,0.4375 0 0 0 4.9375,6.25 h 6.125 A 0.4375,0.4375 0 0 0 11.5,5.8125 V 1.875 h -7 z M 3.625,14.125 h 8.75 V 10.1875 A 0.4375,0.4375 0 0 0 11.9375,9.75 H 4.0625 A 0.4375,0.4375 0 0 0 3.625,10.1875 Z"
     id="path38"
     style="stroke-width:0.875" /><g
     id="g3311"
     transform="translate(-0.71826825,0.24142758)"
     style="stroke-width:0.34626667;stroke-dasharray:none"><g
       style="fill:currentColor;stroke-width:0.6314889;stroke-dasharray:none;paint-order:stroke markers fill"
       id="g876"
       transform="matrix(0.5180211,0,0,0.58042014,5.6002095,2.9045684)"><path
         d="m 12.146,0.146 a 0.5,0.5 0 0 1 0.708,0 l 3,3 a 0.5,0.5 0 0 1 0,0.708 l -10,10 a 0.5,0.5 0 0 1 -0.168,0.11 l -5,2 a 0.5,0.5 0 0 1 -0.65,-0.65 l 2,-5 a 0.5,0.5 0 0 1 0.11,-0.168 z M 11.207,2.5 13.5,4.793 14.793,3.5 12.5,1.207 Z m 1.586,3 L 10.5,3.207 4,9.707 V 10 H 4.5 A 0.5,0.5 0 0 1 5,10.5 V 11 H 5.5 A 0.5,0.5 0 0 1 6,11.5 V 12 H 6.293 Z M 3.032,10.675 2.926,10.781 1.398,14.602 5.219,13.074 5.325,12.968 A 0.5,0.5 0 0 1 5,12.5 V 12 H 4.5 A 0.5,0.5 0 0 1 4,11.5 V 11 H 3.5 A 0.5,0.5 0 0 1 3.032,10.675"
         id="path867"
         style="fill:#000000;fill-opacity:1;stroke:#ffffff;stroke-width:0.6314889;stroke-dasharray:none;stroke-opacity:1;paint-order:stroke markers fill" /></g><path
       style="fill:#ffffff;fill-opacity:1;stroke:none;stroke-width:0.34626667;stroke-linecap:butt;stroke-linejoin:miter;stroke-opacity:1;stroke-dasharray:none"
       d="M 12.081513,3.6041908 13.259954,4.9350503 12.594958,5.6867297 11.403731,4.3524922 Z"
       id="path2774" /><path
       style="fill:#ffffff;fill-opacity:1;stroke:none;stroke-width:0.34626667;stroke-linecap:butt;stroke-linejoin:miter;stroke-opacity:1;stroke-dasharray:none"
       d="M 11.005997,4.7683521 12.192213,6.0966099 8.8345302,9.8759475 8.6784481,9.8623168 8.6772305,9.5413971 8.6792,9.3024256 8.1627875,9.28235 8.1542816,8.7235336 7.9845066,8.7144116 7.6408822,8.6991401 7.6449389,8.5444717 Z"
       id="path2776" /><path
       style="fill:#ffffff;fill-opacity:1;stroke:none;stroke-width:0.34626667;stroke-linecap:butt;stroke-linejoin:miter;stroke-opacity:1;stroke-dasharray:none"
       d="M 7.1901223,9.4025185 7.0695339,9.8039814 7.5307097,9.8003939 7.5136664,9.4687843 Z"
       id="path2778" /></g></svg>
