<?xml version="1.0" encoding="UTF-8" standalone="no"?>
<svg
   width="48"
   height="48"
   fill="currentColor"
   class="bi bi-clock"
   viewBox="0 0 48 48 "
   version="1.2"
   id="svg6"
   sodipodi:docname="clock.svg"
   inkscape:version="1.2.2 (b0a8486541, 2022-12-01)"
   xmlns:inkscape="http://www.inkscape.org/namespaces/inkscape"
   xmlns:sodipodi="http://sodipodi.sourceforge.net/DTD/sodipodi-0.dtd"
   xmlns="http://www.w3.org/2000/svg"
   xmlns:svg="http://www.w3.org/2000/svg">
  <defs
     id="defs10" />
  <sodipodi:namedview
     id="namedview8"
     pagecolor="#ffffff"
     bordercolor="#666666"
     borderopacity="1.0"
     inkscape:showpageshadow="true"
     inkscape:pageopacity="0.0"
     inkscape:pagecheckerboard="false"
     inkscape:deskcolor="#d1d1d1"
     showgrid="true"
     inkscape:zoom="11.313709"
     inkscape:cx="44.945473"
     inkscape:cy="28.151687"
     inkscape:window-width="2560"
     inkscape:window-height="1385"
     inkscape:window-x="0"
     inkscape:window-y="0"
     inkscape:window-maximized="1"
     inkscape:current-layer="svg6"
     shape-rendering="auto"
     borderlayer="true"
     showborder="true">
    <inkscape:grid
       type="xygrid"
       id="grid1907"
       originx="0"
       originy="0" />
  </sodipodi:namedview>
  <g
     id="g2283"
     transform="matrix(1,0,0,1,0,0)" />
  <path
     style="fill:#000000;fill-opacity:1;fill-rule:evenodd;stroke:#000000;stroke-width:4.99061;stroke-linecap:round;stroke-miterlimit:0;stroke-dasharray:none;stroke-opacity:1;paint-order:stroke markers fill"
     id="path1303"
     sodipodi:type="arc"
     sodipodi:cx="23.996044"
     sodipodi:cy="3.1018286"
     sodipodi:rx="0.55914074"
     sodipodi:ry="0.55916005"
     sodipodi:start="0"
     sodipodi:end="6.2747958"
     sodipodi:open="true"
     sodipodi:arc-type="arc"
     d="m 24.555185,3.1018286 a 0.55914074,0.55916005 0 0 1 -0.557968,0.5591588 0.55914074,0.55916005 0 0 1 -0.560309,-0.5568133 0.55914074,0.55916005 0 0 1 0.555618,-0.5614945 0.55914074,0.55916005 0 0 1 0.562639,0.554458"
     inkscape:transform-center-x="0.021711163"
     inkscape:transform-center-y="-9.9022485" />
  <path
     style="fill:#000000;fill-opacity:1;fill-rule:evenodd;stroke:#000000;stroke-width:4.99062;stroke-linecap:round;stroke-miterlimit:0;stroke-dasharray:none;stroke-opacity:1;paint-order:stroke markers fill"
     id="path1642"
     sodipodi:type="arc"
     sodipodi:cx="8.7764549"
     sodipodi:cy="11.909354"
     sodipodi:rx="0.55914551"
     sodipodi:ry="0.55915529"
     sodipodi:start="0"
     sodipodi:end="6.2747958"
     sodipodi:open="true"
     sodipodi:arc-type="arc"
     d="M 9.3356004,11.909354 A 0.55914551,0.55915529 0 0 1 8.7776277,12.468508 0.55914551,0.55915529 0 0 1 8.2173143,11.9117 0.55914551,0.55915529 0 0 1 8.7729367,11.35021 0.55914551,0.55915529 0 0 1 9.3355808,11.904663"
     inkscape:transform-center-x="4.6986749"
     inkscape:transform-center-y="-8.56411"
     transform="matrix(0.86601794,-0.50001293,0.49998715,0.86603282,0,0)" />
  <path
     style="fill:#000000;fill-opacity:1;fill-rule:evenodd;stroke:#000000;stroke-width:4.99062;stroke-linecap:round;stroke-miterlimit:0;stroke-dasharray:none;stroke-opacity:1;paint-order:stroke markers fill"
     id="path1646"
     sodipodi:type="arc"
     sodipodi:cx="-8.8081169"
     sodipodi:cy="11.926681"
     sodipodi:rx="0.55915529"
     sodipodi:ry="0.55914551"
     sodipodi:start="0"
     sodipodi:end="6.2747958"
     sodipodi:open="true"
     sodipodi:arc-type="arc"
     d="m -8.2489616,11.926681 a 0.55915529,0.55914551 0 0 1 -0.5579826,0.559144 0.55915529,0.55914551 0 0 1 -0.5603231,-0.556799 0.55915529,0.55914551 0 0 1 0.5556321,-0.56148 0.55915529,0.55914551 0 0 1 0.5626539,0.554444"
     inkscape:transform-center-x="8.1166316"
     inkscape:transform-center-y="-4.9312294"
     transform="matrix(0.49998705,-0.86603288,0.86601799,0.50001284,0,0)" />
  <path
     style="fill:#000000;fill-opacity:1;fill-rule:evenodd;stroke:#000000;stroke-width:4.99061;stroke-linecap:round;stroke-miterlimit:0;stroke-dasharray:none;stroke-opacity:1;paint-order:stroke markers fill"
     id="path1650"
     sodipodi:type="arc"
     sodipodi:cx="-24.045904"
     sodipodi:cy="3.1496272"
     sodipodi:rx="0.55916005"
     sodipodi:ry="0.55914074"
     sodipodi:start="0"
     sodipodi:end="6.2747958"
     sodipodi:open="true"
     sodipodi:arc-type="arc"
     d="m -23.486744,3.1496272 a 0.55916005,0.55914074 0 0 1 -0.557987,0.5591395 0.55916005,0.55914074 0 0 1 -0.560328,-0.556794 0.55916005,0.55914074 0 0 1 0.555637,-0.5614752 0.55916005,0.55914074 0 0 1 0.562658,0.5544388"
     inkscape:transform-center-x="9.3597442"
     inkscape:transform-center-y="0.022968262"
     transform="rotate(-90)" />
  <path
     style="fill:#000000;fill-opacity:1;fill-rule:evenodd;stroke:#000000;stroke-width:4.99062;stroke-linecap:round;stroke-miterlimit:0;stroke-dasharray:none;stroke-opacity:1;paint-order:stroke markers fill"
     id="path1668"
     sodipodi:type="arc"
     sodipodi:cx="-32.853245"
     sodipodi:cy="-12.070135"
     sodipodi:rx="0.55915529"
     sodipodi:ry="0.55914551"
     sodipodi:start="0"
     sodipodi:end="6.2747958"
     sodipodi:open="true"
     sodipodi:arc-type="arc"
     d="m -32.294089,-12.070135 a 0.55915529,0.55914551 0 0 1 -0.557983,0.559144 0.55915529,0.55914551 0 0 1 -0.560323,-0.556799 0.55915529,0.55914551 0 0 1 0.555632,-0.56148 0.55915529,0.55914551 0 0 1 0.562654,0.554444"
     inkscape:transform-center-x="8.0949206"
     inkscape:transform-center-y="4.9710138"
     transform="matrix(-0.4999871,-0.86603285,0.86601795,-0.5000129,0,0)" />
  <path
     style="fill:#000000;fill-opacity:1;fill-rule:evenodd;stroke:#000000;stroke-width:4.99062;stroke-linecap:round;stroke-miterlimit:0;stroke-dasharray:none;stroke-opacity:1;paint-order:stroke markers fill"
     id="path1672"
     sodipodi:type="arc"
     sodipodi:cx="-32.870216"
     sodipodi:cy="-29.655064"
     sodipodi:rx="0.55914551"
     sodipodi:ry="0.55915529"
     sodipodi:start="0"
     sodipodi:end="6.2747958"
     sodipodi:open="true"
     sodipodi:arc-type="arc"
     d="m -32.311071,-29.655064 a 0.55914551,0.55915529 0 0 1 -0.557973,0.559154 0.55914551,0.55915529 0 0 1 -0.560313,-0.556808 0.55914551,0.55915529 0 0 1 0.555622,-0.56149 0.55914551,0.55915529 0 0 1 0.562644,0.554453"
     inkscape:transform-center-x="4.6610656"
     inkscape:transform-center-y="8.5870801"
     transform="matrix(-0.86601795,-0.5000129,0.4999871,-0.86603285,0,0)" />
  <path
     style="fill:#000000;fill-opacity:1;fill-rule:evenodd;stroke:#000000;stroke-width:4.99061;stroke-linecap:round;stroke-miterlimit:0;stroke-dasharray:none;stroke-opacity:1;paint-order:stroke markers fill"
     id="path1676"
     sodipodi:type="arc"
     sodipodi:cx="-24.092985"
     sodipodi:cy="-44.89304"
     sodipodi:rx="0.55914074"
     sodipodi:ry="0.55916005"
     sodipodi:start="0"
     sodipodi:end="6.2747958"
     sodipodi:open="true"
     sodipodi:arc-type="arc"
     d="m -23.533844,-44.89304 a 0.55914074,0.55916005 0 0 1 -0.557968,0.559159 0.55914074,0.55916005 0 0 1 -0.560309,-0.556813 0.55914074,0.55916005 0 0 1 0.555618,-0.561495 0.55914074,0.55916005 0 0 1 0.562639,0.554458"
     inkscape:transform-center-x="-0.021711209"
     inkscape:transform-center-y="9.9022462"
     transform="scale(-1)" />
  <path
     style="fill:#000000;fill-opacity:1;fill-rule:evenodd;stroke:#000000;stroke-width:4.99062;stroke-linecap:round;stroke-miterlimit:0;stroke-dasharray:none;stroke-opacity:1;paint-order:stroke markers fill"
     id="path1680"
     sodipodi:type="arc"
     sodipodi:cx="-8.8734007"
     sodipodi:cy="-53.700203"
     sodipodi:rx="0.55914551"
     sodipodi:ry="0.55915529"
     sodipodi:start="0"
     sodipodi:end="6.2747958"
     sodipodi:open="true"
     sodipodi:arc-type="arc"
     d="m -8.3142552,-53.700203 a 0.55914551,0.55915529 0 0 1 -0.5579728,0.559154 0.55914551,0.55915529 0 0 1 -0.5603133,-0.556808 0.55914551,0.55915529 0 0 1 0.5556224,-0.56149 0.55914551,0.55915529 0 0 1 0.562644,0.554453"
     inkscape:transform-center-x="-4.6986777"
     inkscape:transform-center-y="8.5641091"
     transform="matrix(-0.86601795,0.5000129,-0.4999871,-0.86603285,0,0)" />
  <path
     style="fill:#000000;fill-opacity:1;fill-rule:evenodd;stroke:#000000;stroke-width:4.99062;stroke-linecap:round;stroke-miterlimit:0;stroke-dasharray:none;stroke-opacity:1;paint-order:stroke markers fill"
     id="path1684"
     sodipodi:type="arc"
     sodipodi:cx="8.7111712"
     sodipodi:cy="-53.716808"
     sodipodi:rx="0.55915529"
     sodipodi:ry="0.55914551"
     sodipodi:start="0"
     sodipodi:end="6.2747958"
     sodipodi:open="true"
     sodipodi:arc-type="arc"
     d="m 9.2703264,-53.716808 a 0.55915529,0.55914551 0 0 1 -0.5579825,0.559144 0.55915529,0.55914551 0 0 1 -0.5603231,-0.556799 0.55915529,0.55914551 0 0 1 0.5556321,-0.56148 0.55915529,0.55914551 0 0 1 0.5626539,0.554444"
     inkscape:transform-center-x="-8.1166325"
     inkscape:transform-center-y="4.9312291"
     transform="matrix(-0.4999871,0.86603285,-0.86601795,-0.5000129,0,0)" />
  <path
     style="fill:#000000;fill-opacity:1;fill-rule:evenodd;stroke:#000000;stroke-width:4.99061;stroke-linecap:round;stroke-miterlimit:0;stroke-dasharray:none;stroke-opacity:1;paint-order:stroke markers fill"
     id="path1688"
     sodipodi:type="arc"
     sodipodi:cx="23.948963"
     sodipodi:cy="-44.939388"
     sodipodi:rx="0.55916005"
     sodipodi:ry="0.55914074"
     sodipodi:start="0"
     sodipodi:end="6.2747958"
     sodipodi:open="true"
     sodipodi:arc-type="arc"
     d="m 24.508123,-44.939388 a 0.55916005,0.55914074 0 0 1 -0.557987,0.559139 0.55916005,0.55914074 0 0 1 -0.560328,-0.556794 0.55916005,0.55914074 0 0 1 0.555637,-0.561475 0.55916005,0.55914074 0 0 1 0.562659,0.554439"
     inkscape:transform-center-x="-9.359737"
     inkscape:transform-center-y="-0.022969711"
     transform="rotate(90)" />
  <path
     style="fill:#000000;fill-opacity:1;fill-rule:evenodd;stroke:#000000;stroke-width:4.99062;stroke-linecap:round;stroke-miterlimit:0;stroke-dasharray:none;stroke-opacity:1;paint-order:stroke markers fill"
     id="path1692"
     sodipodi:type="arc"
     sodipodi:cx="32.756298"
     sodipodi:cy="-29.719997"
     sodipodi:rx="0.55915529"
     sodipodi:ry="0.55914551"
     sodipodi:start="0"
     sodipodi:end="6.2747958"
     sodipodi:open="true"
     sodipodi:arc-type="arc"
     d="m 33.315453,-29.719997 a 0.55915529,0.55914551 0 0 1 -0.557982,0.559144 0.55915529,0.55914551 0 0 1 -0.560323,-0.556799 0.55915529,0.55914551 0 0 1 0.555632,-0.56148 0.55915529,0.55914551 0 0 1 0.562654,0.554444"
     inkscape:transform-center-x="-8.0949216"
     inkscape:transform-center-y="-4.9710167"
     transform="matrix(0.49998705,0.86603288,-0.86601799,0.50001284,0,0)" />
  <path
     style="fill:#000000;fill-opacity:1;fill-rule:evenodd;stroke:#000000;stroke-width:4.99062;stroke-linecap:round;stroke-miterlimit:0;stroke-dasharray:none;stroke-opacity:1;paint-order:stroke markers fill"
     id="path1696"
     sodipodi:type="arc"
     sodipodi:cx="32.773281"
     sodipodi:cy="-12.135782"
     sodipodi:rx="0.55914551"
     sodipodi:ry="0.55915529"
     sodipodi:start="0"
     sodipodi:end="6.2747958"
     sodipodi:open="true"
     sodipodi:arc-type="arc"
     d="m 33.332427,-12.135782 a 0.55914551,0.55915529 0 0 1 -0.557973,0.559154 0.55914551,0.55915529 0 0 1 -0.560313,-0.556809 0.55914551,0.55915529 0 0 1 0.555622,-0.561489 0.55914551,0.55915529 0 0 1 0.562644,0.554453"
     inkscape:transform-center-x="-4.6610721"
     inkscape:transform-center-y="-8.5870781"
     transform="matrix(0.86601794,0.50001293,-0.49998715,0.86603282,0,0)" />
  <path
     d="m 25.444815,10.015342 a 1.4921338,1.4979849 0 0 0 -2.984266,0 v 16.477834 a 1.4921338,1.4979849 0 0 0 0.752034,1.300251 l 10.444934,5.991938 a 1.4921338,1.4979849 0 0 0 1.480199,-2.600501 l -9.692901,-5.560519 z"
     id="path2"
     style="stroke:#000000;stroke-width:2.6012;stroke-dasharray:none;stroke-opacity:1" />
</svg>
