<?xml version="1.0" encoding="UTF-8"?>
<svg width="1024" height="1024" viewBox="0 0 680 680" xmlns="http://www.w3.org/2000/svg">
  <defs>
    <clipPath id="sq">
      <rect x="80" y="80" width="520" height="520" rx="108" ry="108"/>
    </clipPath>
  </defs>

  <rect x="80" y="80" width="520" height="520" rx="108" ry="108" fill="#0e120e"/>

  <g clip-path="url(#sq)">

    <rect x="110" y="138" width="460" height="344" rx="18" ry="18" fill="#060e06"/>
    <rect x="130" y="158" width="420" height="304" rx="10" ry="10" fill="#070e07"/>

    <g font-family="'Courier New',monospace" font-weight="400">

      <rect x="130" y="158" width="420" height="18" fill="#2ecc54" opacity="0.12"/>
      <text x="340" y="171" font-size="13" font-weight="700" fill="#ffff44" opacity="0.90" text-anchor="middle">Q3270  -  PRIMARY OPTION MENU</text>

      <text x="148" y="200" font-size="12" fill="#2ecc54" opacity="0.80">SELECT OPTION  ==&gt;</text>
      <text x="355" y="200" font-size="12" fill="#ffffff" opacity="0.70">_</text>

      <text x="148" y="222" font-size="12" fill="#ffff44" opacity="0.70">0</text>
      <text x="163" y="222" font-size="12" fill="#2ecc54" opacity="0.55">SETTINGS</text>
      <text x="255" y="222" font-size="12" fill="#ffffff" opacity="0.40">- Session preferences</text>

      <text x="148" y="237" font-size="12" fill="#ffff44" opacity="0.70">1</text>
      <text x="163" y="237" font-size="12" fill="#2ecc54" opacity="0.55">CONNECT</text>
      <text x="255" y="237" font-size="12" fill="#ffffff" opacity="0.40">- Open host session</text>

      <text x="148" y="252" font-size="12" fill="#ffff44" opacity="0.70">2</text>
      <text x="163" y="252" font-size="12" fill="#2ecc54" opacity="0.55">SESSIONS</text>
      <text x="255" y="252" font-size="12" fill="#ffffff" opacity="0.40">- Manage sessions</text>

      <text x="148" y="267" font-size="12" fill="#ffff44" opacity="0.70">3</text>
      <text x="163" y="267" font-size="12" fill="#2ecc54" opacity="0.55">TRANSFER</text>
      <text x="255" y="267" font-size="12" fill="#ffffff" opacity="0.40">- File transfer</text>

      <text x="148" y="282" font-size="12" fill="#ffff44" opacity="0.70">4</text>
      <text x="163" y="282" font-size="12" fill="#2ecc54" opacity="0.55">MACROS</text>
      <text x="255" y="282" font-size="12" fill="#ffffff" opacity="0.40">- Keyboard macros</text>

      <text x="148" y="297" font-size="12" fill="#ffff44" opacity="0.70">5</text>
      <text x="163" y="297" font-size="12" fill="#2ecc54" opacity="0.55">LOG</text>
      <text x="255" y="297" font-size="12" fill="#ffffff" opacity="0.40">- Session log</text>

      <text x="148" y="317" font-size="12" fill="#2ecc54" opacity="0.18">────────────────────────────────────</text>

      <text x="148" y="333" font-size="12" fill="#ff4444" opacity="0.75">X</text>
      <text x="163" y="333" font-size="12" fill="#ff4444" opacity="0.55">EXIT</text>
      <text x="255" y="333" font-size="12" fill="#ffffff" opacity="0.40">- End session</text>

      <text x="148" y="355" font-size="11" fill="#44ffff" opacity="0.35">Q3270 Terminal Emulator  v1.0</text>
      <text x="148" y="368" font-size="11" fill="#44ffff" opacity="0.28">(c) 2024  Licensed under GPL v3</text>

      <text x="148" y="388" font-size="11" fill="#4a8fff" opacity="0.50">PF1=HELP</text>
      <text x="228" y="388" font-size="11" fill="#4a8fff" opacity="0.50">PF3=EXIT</text>
      <text x="308" y="388" font-size="11" fill="#4a8fff" opacity="0.50">PF9=SWAP</text>
      <text x="393" y="388" font-size="11" fill="#4a8fff" opacity="0.50">PF12=CANCEL</text>

    </g>

    <text x="145" y="422"
      font-family="'Courier New',monospace"
      font-size="88"
      font-weight="700"
      letter-spacing="2">
      <tspan fill="#3a8fff">Q</tspan><tspan fill="#ff4444">3</tspan><tspan fill="#ff44ff">2</tspan><tspan fill="#44ff44">7</tspan><tspan fill="#44ffff">0</tspan>
    </text>

    <rect x="130" y="432" width="420" height="1" fill="#2ecc54" opacity="0.3"/>
    <text x="148" y="447" font-family="'Courier New',monospace" font-size="12" fill="#ff4444" opacity="0.60">DISCONNECTED</text>
    <text x="496" y="447" font-family="'Courier New',monospace" font-size="12" fill="#2ecc54" opacity="0.50" text-anchor="end">09:41:22</text>

    <rect x="130" y="158" width="420" height="304" rx="10" ry="10" fill="none" stroke="#1a3a1a" stroke-width="1" opacity="0.6"/>

  </g>

  <rect x="110" y="138" width="460" height="344" rx="18" ry="18" fill="none" stroke="#2a4a2a" stroke-width="1.5" opacity="0.4"/>
  <rect x="80" y="80" width="520" height="520" rx="108" ry="108" fill="none" stroke="#1a2e1a" stroke-width="3" opacity="0.6"/>

  <rect x="178" y="553" width="324" height="20" rx="6" fill="#131813" opacity="0.9"/>
  <rect x="285" y="576" width="110" height="14" rx="7" fill="#1a2a1a"/>
</svg>
